<svg width="24" height="18" viewBox="0 0 24 18" fill="none" xmlns="http://www.w3.org/2000/svg">
<path d="M15.2347 5.952H13.9688V12.042H15.2347C16.9088 12.042 17.6663 11.0415 17.6663 9.012C17.6663 6.981 16.9012 5.952 15.2347 5.952Z" fill="#303030"/>
<path d="M0 3C0 2.20435 0.316071 1.44129 0.87868 0.87868C1.44129 0.31607 2.20435 0 3 0H21C21.7956 0 22.5587 0.31607 23.1213 0.87868C23.6839 1.44129 24 2.20435 24 3V15C24 15.7956 23.6839 16.5587 23.1213 17.1213C22.5587 17.6839 21.7956 18 21 18H3C2.20435 18 1.44129 17.6839 0.87868 17.1213C0.316071 16.5587 0 15.7956 0 15V3ZM7.776 9.552C8.745 9.552 9.3585 10.119 9.366 10.902C9.378 11.7075 8.7255 12.2805 7.737 12.2805C6.84 12.2745 6.1815 11.793 6.135 11.1465H4.5C4.545 12.5175 5.6865 13.6785 7.7295 13.6785C9.5895 13.6785 11.157 12.6885 11.1375 10.9815C11.118 9.552 10.017 8.9115 9.1995 8.8335V8.7405C9.8595 8.6355 10.887 7.95 10.8615 6.678C10.842 5.319 9.6615 4.323 7.782 4.3305C5.817 4.338 4.7175 5.4315 4.671 6.8355H6.3255C6.3585 6.249 6.9 5.709 7.7295 5.709C8.5275 5.709 9.1215 6.204 9.1215 6.9285C9.1275 7.647 8.547 8.181 7.7295 8.181H6.7815V9.552H7.776ZM12.189 13.5H15.4725C18.1875 13.5 19.5 11.8395 19.5 8.9775C19.5 6.1365 18.2085 4.5015 15.4725 4.5015H12.189V13.5Z" fill="#303030"/>
</svg>
