<svg width="11" height="19" viewBox="0 0 11 19" fill="none" xmlns="http://www.w3.org/2000/svg">
<path d="M9.72103 0H1.27897C0.575644 0 0 0.577057 0 1.28331V17.7161C0 18.4224 0.575644 19 1.27897 19H9.72103C10.4244 19 11 18.4235 11 17.7167V1.28331C11 0.577057 10.4244 0 9.72103 0ZM4.14962 0.925029H6.85038C6.93586 0.925029 7.00512 0.994514 7.00512 1.08083C7.00512 1.1666 6.93586 1.23609 6.85038 1.23609H4.14962C4.06414 1.23609 3.99489 1.1666 3.99489 1.08083C3.99489 0.994514 4.06414 0.925029 4.14962 0.925029ZM5.5 18.3583C5.14671 18.3583 4.86052 18.0712 4.86052 17.7161C4.86052 17.3611 5.14671 17.0745 5.5 17.0745C5.85329 17.0745 6.13948 17.3611 6.13948 17.7161C6.13948 18.0712 5.85329 18.3583 5.5 18.3583ZM10.11 16.625H0.889976V2.03517H10.11V16.625Z" fill="black"/>
</svg>
