<svg style="display: none;" aria-hidden="true" xmlns="http://www.w3.org/2000/svg" xmlns:xlink="http://www.w3.org/1999/xlink"><symbol viewBox="0 0 14 9" id="svg-arrow-button" xmlns="http://www.w3.org/2000/svg"><path d="M0 5.563V4.417h10.548l-2.72-2.291.68-1.146 4.76 4.01L8.508 9l-.68-1.146 2.72-2.291H0Z"/></symbol><symbol viewBox="0 0 12 12" id="svg-diamond" xmlns="http://www.w3.org/2000/svg"><path fill-rule="evenodd" clip-rule="evenodd" d="M6 12a6.006 6.006 0 0 0-6-5.989C3.314 6.011 6 3.32 6 0a6.006 6.006 0 0 0 6 5.989C8.686 5.989 6 8.68 6 12Z"/></symbol><symbol viewBox="0 0 24 18" id="svg-logo" xmlns="http://www.w3.org/2000/svg"><path d="M15.235 5.952h-1.266v6.09h1.266c1.674 0 2.431-1 2.431-3.03 0-2.031-.765-3.06-2.431-3.06Z"/><path d="M0 3a3 3 0 0 1 3-3h18a3 3 0 0 1 3 3v12a3 3 0 0 1-3 3H3a3 3 0 0 1-3-3V3Zm7.776 6.552c.969 0 1.582.567 1.59 1.35.012.806-.64 1.379-1.629 1.379-.897-.007-1.556-.488-1.602-1.135H4.5c.045 1.371 1.186 2.532 3.23 2.532 1.86 0 3.427-.99 3.407-2.697-.019-1.429-1.12-2.07-1.938-2.147V8.74c.66-.105 1.688-.791 1.662-2.063-.019-1.359-1.2-2.355-3.079-2.348-1.965.008-3.064 1.101-3.111 2.505h1.654C6.36 6.25 6.9 5.71 7.73 5.71c.798 0 1.392.495 1.392 1.22.006.718-.574 1.252-1.392 1.252h-.947v1.371h.994Zm4.413 3.948h3.284c2.714 0 4.027-1.66 4.027-4.523 0-2.84-1.291-4.476-4.027-4.476h-3.284V13.5Z"/></symbol><symbol viewBox="0 0 11 19" id="svg-phone" xmlns="http://www.w3.org/2000/svg"><path d="M9.721 0H1.279C.576 0 0 .577 0 1.283v16.433C0 18.422.576 19 1.279 19h8.442c.703 0 1.279-.576 1.279-1.283V1.283C11 .577 10.424 0 9.721 0ZM4.15.925h2.7c.086 0 .155.07.155.156s-.07.155-.155.155h-2.7a.155.155 0 0 1-.155-.155c0-.086.07-.156.155-.156ZM5.5 18.358a.64.64 0 0 1-.64-.642.64.64 0 1 1 1.28 0 .64.64 0 0 1-.64.642Zm4.61-1.733H.89V2.035h9.22v14.59Z"/></symbol></svg>